# xmcd
#
# Track frame offsets:
# 150
# 9350
# 26347
# 36684
# 51075
# 71085
# 79831
# 92872
# 109874
# 118209
# 130460
# 139946
# 153359
# 165821
# 177029
# 183855
# 196380
# 218638
# 233948
# 245811
# 249350
#
# Disc length: 3430 seconds
#
#
# Revision: 0
# Processed by: cddbd v1.5.1PL0 Copyright (c) Steve Scherf et al.
# Submitted via: FreeRIP 2.53 
#
DISCID=230d6415
DTITLE=Lil' Dogies - Linder and Brock
DYEAR=1900
DGENRE=Country
TTITLE0=Get along Lil dogies
TTITLE1=Ghost Riders in the Sky
TTITLE2=San Antonio Rose
TTITLE3=Cool Clear Water
TTITLE4=El Paso
TTITLE5=Don't Fence Me In
TTITLE6=Rodeo Man
TTITLE7=They Call the Wind Maria
TTITLE8=El Rancho Grande
TTITLE9=A Mare's Tale
TTITLE10=Back in the Saddle Again
TTITLE11=Red River Valley
TTITLE12=Cattle Call
TTITLE13=Cielito Lindo
TTITLE14=Home on the Range
TTITLE15=amazing Grace
TTITLE16=Cowpoke in Manhattan
TTITLE17=Shenandoah
TTITLE18=Happy trails
TTITLE19=God Bless America
TTITLE20=God Bless the USA
EXTD=
EXTT0=
EXTT1=
EXTT2=
EXTT3=
EXTT4=
EXTT5=
EXTT6=
EXTT7=
EXTT8=
EXTT9=
EXTT10=
EXTT11=
EXTT12=
EXTT13=
EXTT14=
EXTT15=
EXTT16=
EXTT17=
EXTT18=
EXTT19=
EXTT20=
PLAYORDER=
